<?xml version="1.0" encoding="utf-8"?>
<!-- Generator: Adobe Illustrator 19.1.0, SVG Export Plug-In . SVG Version: 6.00 Build 0)  -->
<!DOCTYPE svg PUBLIC "-//W3C//DTD SVG 1.1//EN" "http://www.w3.org/Graphics/SVG/1.1/DTD/svg11.dtd">
<svg version="1.1" id="Layer_1" xmlns="http://www.w3.org/2000/svg" xmlns:xlink="http://www.w3.org/1999/xlink" x="0px" y="0px"
	 width="60px" height="60px" viewBox="-16.2 341.3 60 60" style="enable-background:new -16.2 341.3 60 60;" xml:space="preserve">
<style type="text/css">
	.st0{fill:#666666;}
</style>
<path class="st0" d="M43.7,372c0.1,1.6-0.2,3.2-0.7,4.7c-0.4,1.2-0.9,2.4-1.3,3.6c-0.8,2.5-1.9,4.8-3.3,7c-0.6,1-1.3,1.9-2.1,2.7
	c-0.8,0.8-1.8,1.4-2.8,2.2c-0.7,0.5-1.3,1-2,1.5c-1.4,1-2.8,2-4.3,3c-0.6,0.4-1.4,0.6-2.1,0.9c-0.9,0.4-1.8,0.8-2.7,1.2
	c-1,0.4-1.9,0.8-2.9,1.1c-1.7,0.6-3.5,0.7-5.3,0.8c-1.5,0.1-3-0.2-4.5-0.5C9,399.8,8,399.9,7,399.8c-0.7-0.1-1.4-0.1-2-0.2
	c-0.9-0.2-1.8-0.6-2.7-0.9c-1.3-0.5-2.3-1.3-3.4-2.1c-1.2-0.9-2.4-1.8-3.6-2.8c-1.2-1-2.3-2.1-3.4-3.2c-0.6-0.6-1.3-1.3-1.9-1.9
	c-1.1-1-1.8-2.3-2.5-3.6c-0.6-1.1-1.1-2.3-1.6-3.5c-0.2-0.6-0.4-1.2-0.6-1.8c-0.2-0.6-0.4-1.2-0.6-1.7c-0.8-2.3-1.4-4.7-1.1-7.2
	c0.2-1.2,0.4-2.3,0.6-3.5c0.4-1.7,0.7-3.5,1.3-5.2c0.6-1.8,1.3-3.6,2.1-5.3c0.6-1.2,1.4-2.2,2.2-3.3c0.9-1.1,1.8-2.2,2.7-3.3
	c0.9-1,1.8-1.9,2.9-2.7c1-0.7,2.2-1.3,3.3-1.9c1-0.5,2-1.1,3.1-1.6c0.5-0.2,1.1-0.4,1.6-0.6c0.5-0.2,1-0.4,1.5-0.5
	c0.8-0.2,1.6-0.3,2.4-0.4c0.2,0,0.3-0.2,0.5-0.2c1-0.1,2-0.3,2.9-0.4c1.3,0,2.5,0,3.8,0.1c0.4,0,0.7,0.2,1.1,0.2
	c0.5,0.1,1.1,0,1.6,0.1c1,0.1,2,0.2,3,0.4c1.2,0.2,2.5,0.4,3.6,0.9c1.5,0.6,2.9,1.6,4.3,2.4c0.3,0.2,0.6,0.3,0.9,0.5
	c0.8,0.5,1.5,1,2.3,1.6c0.8,0.5,1.6,1,2.3,1.6c0.5,0.4,0.9,1,1.4,1.5c1.5,1.5,2.7,3.2,3.8,5c0.9,1.5,1.7,3,2.3,4.6
	c0.7,1.8,1.3,3.7,1.7,5.7C43.5,368.4,43.6,370.2,43.7,372 M-13,373.2c0.2,1.1,0.3,2.3,0.6,3.4c0.4,1.8,0.5,3.6,1.4,5.3
	c0.4,0.7,0.6,1.5,0.9,2.2c0.4,0.8,0.8,1.5,1.4,2.2c0.8,1,1.6,2,2.6,2.9c1.4,1.4,2.8,2.7,4.3,3.9c1.3,1.1,2.7,2.2,4.3,2.9
	c0.5,0.2,1,0.4,1.5,0.5c1.1,0.4,2.1,0.8,3.2,1.1c1.4,0.4,2.8,0.8,4.3,0.6c1-0.1,2-0.1,3-0.1c1.2,0.1,2.3,0,3.5-0.3
	c0.8-0.2,1.6-0.4,2.5-0.6c0.2-0.1,0.4-0.2,0.6-0.3c0.1-0.1,0.3-0.2,0.4-0.2c1.6-0.1,3.1-0.7,4.4-1.5c1.5-0.9,3-1.8,4.4-2.9
	c1.4-1.1,2.7-2.2,3.9-3.5c1.4-1.5,2.7-3.2,3.7-5c0.5-1,0.8-2,1.2-3c0.2-0.7,0.4-1.3,0.7-2c0.5-1.2,0.9-2.5,1.2-3.8
	c0.1-0.8,0.3-1.5,0.5-2.3c0.1-0.3,0.3-0.7,0.3-1c0-1.2,0-2.4-0.2-3.6c-0.3-1.6-0.7-3.2-1.2-4.7c-0.5-1.3-1.1-2.5-1.8-3.7
	c-1.1-1.9-2.3-3.7-3.6-5.4c-0.7-1-1.7-1.9-2.6-2.7c-1.2-1.1-2.5-2.2-3.9-3.2c-0.5-0.4-1.2-0.6-1.8-1c-1.1-0.6-2.3-1.2-3.4-1.8
	c0,0-0.1,0-0.2,0c-2-0.4-4.1-0.9-6.1-1.2c-1-0.2-2-0.2-2.9-0.2c-0.4,0-0.8,0.1-1.2,0.1c-1.9,0-3.8,0.4-5.5,0.9
	c-2.2,0.7-4.4,1.7-6.6,2.6c-1.4,0.6-2.9,1.2-4,2.3c-0.8,0.7-1.5,1.5-2.2,2.2c-0.9,1-1.8,2.1-2.7,3.2c-0.5,0.6-1,1.2-1.4,1.9
	c-1.8,3.1-2.7,6.4-2.9,9.9C-12.9,369.3-12.9,371.2-13,373.2"/>
<path class="st0" d="M19.1,363.4c1.3,0,2.5,0,3.7,0c0.7,0,1,0.4,1,1.1c0.1,2,0.1,3.9,0.2,5.9c0,0.6,0.1,1.2,0.1,1.8
	c0,0.7-0.3,1.1-1,1.1c-0.8,0-1.5,0-2.3,0.1c-0.5,0-0.9,0.1-1.4,0.1c-0.1,0-0.4,0.2-0.4,0.4c-0.1,2.3-0.2,4.5-0.2,6.8
	c0,1.4-0.1,2.8-0.1,4.2c0,0.8,0,1.6,0,2.4c0,0.8-0.1,1.7-0.2,2.5c-0.1,0.8-0.8,1.3-1.7,1.2c-0.6,0-1.2,0-1.9,0c-1,0-2-0.1-3-0.1
	c-0.5,0-0.9,0-1.4,0c-0.6,0-1.2,0.1-1.8,0.2c-0.9,0-2.1-1-2.1-1.9c0-1.4,0-2.8,0-4.2c0-0.5-0.1-0.9-0.1-1.4c0.1-1.5,0.2-3,0.4-4.5
	c0.1-1.8,0.3-3.5,0.4-5.3c0-0.3-0.1-0.5-0.5-0.5c-0.8,0-1.5,0-2.3,0.1c-0.6,0-1.2-0.3-1.2-0.8c-0.1-0.9-0.2-1.8-0.2-2.7
	c0-0.8,0.2-1.6,0.3-2.3c0.1-1.2,0.1-2.3,0.2-3.5c0-0.2,0.3-0.5,0.4-0.5c0.5-0.1,1.1-0.1,1.6-0.1c2.1,0,1.5,0.1,1.7-1.6
	c0.2-1,0.2-2,0.3-3c0.2-1.1,0.5-2.2,1.2-3.1c0.4-0.5,0.7-1.1,1.2-1.6c0.3-0.4,0.8-0.7,1.2-1c0.7-0.5,1.5-0.6,2.3-0.7
	c0.6-0.1,1.2-0.2,1.8-0.4c0.8-0.1,1.6-0.4,2.5-0.4c1.6-0.1,3.2,0,4.8-0.1c1-0.1,1.6,0.8,1.4,1.6c-0.1,0.4-0.1,0.8,0,1.1
	c0.2,1,0.1,1.9,0,2.9c0,0.6,0,1.2,0,1.8c0,0.4,0,0.8-0.1,1.2c-0.2,0.8-1.3,1.6-2.1,1.6c-0.9,0-1.7,0.1-2.6,0.1
	c-0.1,0-0.3,0.1-0.3,0.2C19.1,362.6,19.1,363,19.1,363.4 M5.8,371.1c0.1,0,0.2,0.1,0.3,0.1c0.8,0.1,1.7,0.3,2.5,0
	c0.7-0.2,1,0.3,0.9,1c0,0.1,0,0.2,0,0.4c0,1.1,0.1,2.2,0.1,3.2c-0.1,1.6-0.3,3.1-0.4,4.7c-0.1,1-0.1,2-0.1,3c0,0.6,0.1,1.3,0.1,1.9
	c0,0.8-0.1,1.6,0,2.4c0,0.4-0.1,0.9,0.6,1c0.5,0,1.1,0.1,1.6,0.1c0.7,0,1.5-0.1,2.2-0.1c1,0,2,0,3.1,0c0-0.3,0-0.6,0-0.9
	c0-0.3-0.1-0.6-0.1-0.8c0-0.8,0-1.6,0.1-2.5c0.1-1.5,0.1-2.9,0.2-4.4c0-0.8,0.2-1.6,0.2-2.5c0-1.7,0-3.3,0-5c0-0.3,0-0.6,0-0.9
	c0-0.5,0.2-0.8,0.7-0.8c1.2-0.1,2.4-0.2,3.6-0.2c0.4,0,0.6-0.2,0.6-0.6c0-1.4,0-2.9,0-4.3c0-0.3-0.1-0.7-0.5-0.8c-1-0.1-2-0.3-3-0.1
	c-0.7,0.2-1.4-0.3-1.4-1.1c0-1,0-2.1,0-3.1c0-0.6,0.3-1.1,0.9-1.3c0.5-0.2,1-0.2,1.5-0.3c0.5,0,1.1,0,1.6,0c1-0.1,1.3-0.4,1.3-1.4
	c0-0.8,0-1.5,0-2.3c0-0.6-0.1-1.2-0.1-1.8c-0.6-0.1-1.1-0.2-1.5-0.2c-1,0-1.9,0-2.9,0c-0.2,0-0.4,0-0.6,0.1
	c-0.7,0.1-1.4,0.2-2.1,0.3c-0.9,0.1-1.8,0.2-2.5,0.9c-0.4,0.3-0.8,0.7-1.1,1c-0.6,0.5-0.9,1.1-1.1,1.9c-0.1,1-0.2,2-0.4,3
	c-0.3,1.5-0.4,2.9-0.3,4.5c-0.5,0.1-1.1,0.2-1.6,0.2c-0.5,0-1-0.1-1.5-0.1c-0.3,0-0.5,0-0.5,0.4c0,0.9-0.1,1.8-0.1,2.8
	C5.8,369.4,5.8,370.2,5.8,371.1"/>
</svg>
